<svg width="10" height="11" viewBox="0 0 10 11" fill="none" xmlns="http://www.w3.org/2000/svg">
<path d="M5.2 0.93C6.1 0.93 6.90333 1.11667 7.61 1.49C8.31667 1.85667 8.86667 2.37333 9.26 3.04C9.66 3.70667 9.86 4.46667 9.86 5.32C9.86 6.17333 9.70333 6.84333 9.39 7.33C9.07667 7.81667 8.64 8.06 8.08 8.06C7.76 8.06 7.49333 7.98 7.28 7.82C7.07333 7.65333 6.94 7.41667 6.88 7.11C6.68 7.41667 6.41667 7.65333 6.09 7.82C5.77 7.98 5.4 8.06 4.98 8.06C4.51333 8.06 4.09333 7.95 3.72 7.73C3.34667 7.51 3.05333 7.20667 2.84 6.82C2.63333 6.42667 2.53 5.98333 2.53 5.49C2.53 5.00333 2.63333 4.56667 2.84 4.18C3.05333 3.78667 3.34667 3.48333 3.72 3.27C4.09333 3.05 4.51333 2.94 4.98 2.94C5.36667 2.94 5.71667 3.01333 6.03 3.16C6.34333 3.3 6.60333 3.51 6.81 3.79V2.98H7.68V6.58C7.68 6.82667 7.73333 7.01 7.84 7.13C7.94667 7.24333 8.08333 7.3 8.25 7.3C8.54333 7.3 8.77 7.13 8.93 6.79C9.09667 6.44333 9.18 5.95667 9.18 5.33C9.18 4.59 9.01333 3.94 8.68 3.38C8.34667 2.81333 7.87667 2.37333 7.27 2.06C6.67 1.74667 5.98 1.59 5.2 1.59C4.41333 1.59 3.71667 1.75333 3.11 2.08C2.51 2.40667 2.04333 2.86333 1.71 3.45C1.37667 4.03667 1.21 4.70667 1.21 5.46C1.21 6.22 1.37333 6.89333 1.7 7.48C2.03333 8.06667 2.49667 8.52333 3.09 8.85C3.69 9.18333 4.38 9.35 5.16 9.35C5.48667 9.35 5.82 9.31333 6.16 9.24C6.5 9.16667 6.81 9.05667 7.09 8.91L7.31 9.55C7.01667 9.70333 6.67667 9.82 6.29 9.9C5.90333 9.98 5.52667 10.02 5.16 10.02C4.24667 10.02 3.43333 9.82333 2.72 9.43C2.01333 9.04333 1.46333 8.50333 1.07 7.81C0.676667 7.11667 0.48 6.33333 0.48 5.46C0.48 4.58667 0.676667 3.80667 1.07 3.12C1.47 2.43333 2.02667 1.89667 2.74 1.51C3.46 1.12333 4.28 0.93 5.2 0.93ZM5.12 7.28C5.44667 7.28 5.73667 7.20667 5.99 7.06C6.25 6.91333 6.45333 6.70667 6.6 6.44C6.75333 6.16667 6.83 5.85 6.83 5.49C6.83 5.13 6.75333 4.81667 6.6 4.55C6.45333 4.27667 6.25 4.07 5.99 3.93C5.73667 3.78333 5.44667 3.71 5.12 3.71C4.61333 3.71 4.20333 3.87333 3.89 4.2C3.57667 4.52 3.42 4.95 3.42 5.49C3.42 6.03 3.57667 6.46333 3.89 6.79C4.21 7.11667 4.62 7.28 5.12 7.28Z" fill="white"/>
</svg>
