<svg width="56" height="68" viewBox="0 0 56 68" fill="none" xmlns="http://www.w3.org/2000/svg">
<g filter="url(#filter0_d_310_5)">
<mask id="path-1-inside-1_310_5" fill="white">
<path fill-rule="evenodd" clip-rule="evenodd" d="M27 60C32.945 60 51 37.5998 51 24.2222C51 10.8447 40.2548 0 27 0C13.7452 0 3 10.8447 3 24.2222C3 37.5998 21.055 60 27 60ZM26.9999 29.9239C30.04 29.9239 32.5045 27.4488 32.5045 24.3955C32.5045 21.3422 30.04 18.867 26.9999 18.867C23.9598 18.867 21.4954 21.3422 21.4954 24.3955C21.4954 27.4488 23.9598 29.9239 26.9999 29.9239Z"/>
</mask>
<path fill-rule="evenodd" clip-rule="evenodd" d="M27 60C32.945 60 51 37.5998 51 24.2222C51 10.8447 40.2548 0 27 0C13.7452 0 3 10.8447 3 24.2222C3 37.5998 21.055 60 27 60ZM26.9999 29.9239C30.04 29.9239 32.5045 27.4488 32.5045 24.3955C32.5045 21.3422 30.04 18.867 26.9999 18.867C23.9598 18.867 21.4954 21.3422 21.4954 24.3955C21.4954 27.4488 23.9598 29.9239 26.9999 29.9239Z" fill="#D9D9D9"/>
<path d="M46 24.2222C46 26.56 45.1768 29.7245 43.5238 33.4101C41.9045 37.0206 39.6484 40.78 37.1772 44.1985C34.7004 47.6249 32.1081 50.57 29.8865 52.5987C28.7695 53.6186 27.8464 54.3148 27.1625 54.7258C26.3419 55.2189 26.3668 55 27 55V65C29.1195 65 31.009 64.0811 32.3137 63.297C33.7551 62.4307 35.2179 61.2723 36.6296 59.9832C39.4653 57.3938 42.5015 53.9027 45.2815 50.0569C48.0672 46.2032 50.6964 41.8542 52.6482 37.5023C54.5663 33.2253 56 28.5732 56 24.2222H46ZM27 5C37.4501 5 46 13.5625 46 24.2222H56C56 8.12678 43.0596 -5 27 -5V5ZM8 24.2222C8 13.5625 16.5499 5 27 5V-5C10.9404 -5 -2 8.12678 -2 24.2222H8ZM27 55C27.6332 55 27.6581 55.2189 26.8375 54.7258C26.1536 54.3148 25.2305 53.6186 24.1135 52.5987C21.8919 50.57 19.2996 47.6249 16.8228 44.1985C14.3516 40.78 12.0955 37.0206 10.4762 33.4101C8.82323 29.7245 8 26.56 8 24.2222H-2C-2 28.5732 -0.566345 33.2253 1.35181 37.5023C3.3036 41.8542 5.93276 46.2032 8.71849 50.0569C11.4985 53.9027 14.5347 57.3938 17.3704 59.9832C18.7821 61.2723 20.2449 62.4307 21.6863 63.297C22.991 64.0811 24.8805 65 27 65V55ZM27.5045 24.3955C27.5045 24.7078 27.2582 24.9239 26.9999 24.9239V34.9239C32.8218 34.9239 37.5045 30.1898 37.5045 24.3955H27.5045ZM26.9999 23.867C27.2582 23.867 27.5045 24.0832 27.5045 24.3955H37.5045C37.5045 18.6012 32.8218 13.867 26.9999 13.867V23.867ZM26.4954 24.3955C26.4954 24.0832 26.7416 23.867 26.9999 23.867V13.867C21.178 13.867 16.4954 18.6012 16.4954 24.3955H26.4954ZM26.9999 24.9239C26.7416 24.9239 26.4954 24.7078 26.4954 24.3955H16.4954C16.4954 30.1898 21.178 34.9239 26.9999 34.9239V24.9239Z" fill="#4B4F4F" mask="url(#path-1-inside-1_310_5)"/>
</g>
<defs>
<filter id="filter0_d_310_5" x="0.658537" y="0" width="55.0244" height="67.0244" filterUnits="userSpaceOnUse" color-interpolation-filters="sRGB">
<feFlood flood-opacity="0" result="BackgroundImageFix"/>
<feColorMatrix in="SourceAlpha" type="matrix" values="0 0 0 0 0 0 0 0 0 0 0 0 0 0 0 0 0 0 127 0" result="hardAlpha"/>
<feOffset dx="1.17073" dy="3.5122"/>
<feGaussianBlur stdDeviation="1.7561"/>
<feComposite in2="hardAlpha" operator="out"/>
<feColorMatrix type="matrix" values="0 0 0 0 0 0 0 0 0 0 0 0 0 0 0 0 0 0 0.25 0"/>
<feBlend mode="normal" in2="BackgroundImageFix" result="effect1_dropShadow_310_5"/>
<feBlend mode="normal" in="SourceGraphic" in2="effect1_dropShadow_310_5" result="shape"/>
</filter>
</defs>
</svg>
