<svg width="116" height="36" viewBox="0 0 116 36" fill="none" xmlns="http://www.w3.org/2000/svg">
<path d="M3.6814 19.0474C2.81294 18.0705 1.7358 15.8926 1.01679 13.9938C0.519544 12.6839 0.2234 11.4698 0.162794 11.0223C0.0133443 9.9275 -0.302085 6.88567 0.753016 4.81734C1.66005 3.03651 3.12148 2.94137 3.7489 3.0179C4.85496 3.25438 5.46034 3.88315 5.78954 4.17202C6.11874 4.4609 8.42178 6.46235 8.88873 6.72296C9.42592 7.02425 10.6339 7.70473 11.7441 8.03291C12.1072 8.13542 12.4764 8.21463 12.8495 8.27007C13.3165 8.34653 13.7878 8.39396 14.2607 8.4121C13.4519 8.62345 12.6164 8.71383 11.7813 8.68029C11.3208 8.66031 10.8631 8.59916 10.4135 8.49759C10.0541 8.41548 9.70138 8.30624 9.35843 8.17079C8.84258 7.96396 7.04299 6.82362 4.90179 6.46925C4.51193 6.40599 4.11824 6.36913 3.72342 6.35894C3.26405 6.35273 2.89697 6.40582 2.48374 6.73468C1.8639 7.21729 1.64076 7.97568 1.5533 9.04018C1.37217 11.2333 2.99201 17.7086 3.6814 19.0474Z" fill="white"/>
<path d="M11.5061 7.41217C11.5061 7.41217 14.7761 6.29596 16.4035 6.80477C17.2582 7.07228 17.5812 7.36736 17.8202 7.82653C18.1205 8.4029 18.0096 9.28815 17.7472 10.132C17.4194 11.1876 16.8284 12.1879 16.5812 12.6499C16.0834 13.5453 15.5196 14.4024 14.8945 15.2139C13.8936 16.5137 12.7929 17.7333 11.6025 18.8618C9.8897 20.4551 8.80981 21.3403 8.80774 21.6154C8.80568 21.8905 8.80774 21.9036 9.11835 22.0794C9.48337 22.2862 11.2237 22.9467 11.1741 24.1705C11.1445 24.9054 10.4944 25.297 9.39108 25.7831C9.04673 25.9354 7.78157 26.2595 7.77055 26.4649C7.75953 26.6704 7.93033 26.7683 8.32978 26.9682C8.72923 27.1682 9.59494 27.5467 9.72373 27.9755C9.85251 28.4043 9.89935 28.4464 9.40968 28.9531C8.92 29.4599 7.79052 29.888 7.62799 30.0418C7.46545 30.1955 7.3525 30.2258 7.46821 30.3534C7.58391 30.4809 8.42551 31.1194 8.7616 31.3779C9.09769 31.6364 9.17483 31.8826 9.12731 32.028C9.00334 32.421 8.04603 32.9243 7.74162 33.0622C7.43721 33.2001 5.43101 33.9999 5.43101 33.9999C6.1693 33.5434 7.23405 32.8526 7.38281 32.6899C7.54465 32.5127 7.8222 32.2411 7.743 31.866C7.69548 31.6378 7.32978 31.551 7.0233 31.4724C6.71683 31.3938 5.79671 31.1904 5.6204 30.9966C5.44409 30.8029 5.2974 30.7526 5.43101 30.3548C5.58941 29.8825 6.51228 29.5564 7.25953 29.3895C7.61215 29.3103 8.1824 29.0724 8.37592 28.8173C8.56945 28.5622 8.45444 28.4036 8.3532 28.2147C8.2313 27.9858 7.56325 27.8231 7.36283 27.7694C7.16242 27.7156 6.09837 27.3557 5.88418 27.051C5.65966 26.7317 5.62798 26.3195 5.82908 26.0726C6.03018 25.8258 6.34492 25.459 7.49989 25.1247C8.11353 24.9468 9.75196 24.6138 9.78571 24.1829C9.82703 23.6685 9.33943 23.5362 9.01987 23.3962C8.49232 23.1653 6.72302 22.5737 6.42413 21.9574C6.12523 21.341 7.11283 20.5268 7.83116 19.8049C8.54948 19.0831 9.65072 18.1502 10.3277 17.6042C11.0047 17.0582 14.0405 14.1342 14.8374 13.0311C15.6342 11.928 16.0495 11.1627 16.252 10.6181C16.4255 10.1527 16.6487 9.4088 16.6611 8.69316C16.6693 8.21882 16.6418 7.8803 16.4545 7.77206C16.2182 7.63417 16.0109 7.47422 15.7492 7.42734C15.4526 7.36408 15.1521 7.3201 14.8498 7.29566C14.6363 7.28325 13.7272 7.24877 13.128 7.28394C12.8794 7.30048 11.6487 7.37977 11.5061 7.41217Z" fill="white"/>
<path d="M30.56 7.05L29.26 7.05L29.26 10L27.98 10L27.98 3L29.26 3L29.26 5.93L30.6 5.93L32.61 3L33.99 3L31.6 6.39L34.08 10L32.61 10L30.56 7.05ZM37.5424 3C38.1491 3 38.6758 3.1 39.1224 3.3C39.5758 3.5 39.9224 3.78667 40.1624 4.16C40.4024 4.53333 40.5224 4.97667 40.5224 5.49C40.5224 5.99667 40.4024 6.44 40.1624 6.82C39.9224 7.19333 39.5758 7.48 39.1224 7.68C38.6758 7.88 38.1491 7.98 37.5424 7.98L35.9624 7.98L35.9624 10L34.6624 10L34.6624 3L37.5424 3ZM37.4824 6.88C38.0491 6.88 38.4791 6.76 38.7724 6.52C39.0658 6.28 39.2124 5.93667 39.2124 5.49C39.2124 5.04333 39.0658 4.7 38.7724 4.46C38.4791 4.22 38.0491 4.1 37.4824 4.1L35.9624 4.1L35.9624 6.88L37.4824 6.88ZM45.7407 8.38L42.2407 8.38L41.5507 10L40.2107 10L43.3607 3L44.6407 3L47.8007 10L46.4407 10L45.7407 8.38ZM45.3107 7.36L43.9907 4.3L42.6807 7.36L45.3107 7.36ZM53.8241 8.91L53.8241 10L48.5741 10L48.5741 3L53.6841 3L53.6841 4.09L49.8741 4.09L49.8741 5.91L53.2541 5.91L53.2541 6.98L49.8741 6.98L49.8741 8.91L53.8241 8.91ZM59.5834 6.36C60.03 6.48 60.37 6.68667 60.6034 6.98C60.8367 7.26667 60.9534 7.62667 60.9534 8.06C60.9534 8.67333 60.7267 9.15 60.2734 9.49C59.82 9.83 59.1634 10 58.3034 10L54.9834 10L54.9834 3L58.1134 3C58.9 3 59.5134 3.15667 59.9534 3.47C60.3934 3.78333 60.6134 4.22667 60.6134 4.8C60.6134 5.16667 60.5234 5.48333 60.3434 5.75C60.17 6.01667 59.9167 6.22 59.5834 6.36ZM56.2634 5.99L58.0034 5.99C58.4234 5.99 58.7434 5.90667 58.9634 5.74C59.1834 5.57333 59.2934 5.32667 59.2934 5C59.2934 4.67333 59.1834 4.42667 58.9634 4.26C58.7434 4.08667 58.4234 4 58.0034 4L56.2634 4L56.2634 5.99ZM58.2634 9C59.1834 9 59.6434 8.65333 59.6434 7.96C59.6434 7.28 59.1834 6.94 58.2634 6.94L56.2634 6.94L56.2634 9L58.2634 9ZM65.3743 10.1C64.661 10.1 64.0176 9.94667 63.4443 9.64C62.871 9.32667 62.421 8.89667 62.0943 8.35C61.7676 7.79667 61.6043 7.18 61.6043 6.5C61.6043 5.82 61.7676 5.20667 62.0943 4.66C62.421 4.10667 62.871 3.67667 63.4443 3.37C64.0176 3.05667 64.661 2.9 65.3743 2.9C66.0876 2.9 66.731 3.05667 67.3043 3.37C67.8776 3.67667 68.3276 4.10333 68.6543 4.65C68.981 5.19667 69.1443 5.81333 69.1443 6.5C69.1443 7.18667 68.981 7.80333 68.6543 8.35C68.3276 8.89667 67.8776 9.32667 67.3043 9.64C66.731 9.94667 66.0876 10.1 65.3743 10.1ZM65.3743 8.96C65.841 8.96 66.261 8.85667 66.6343 8.65C67.0076 8.43667 67.301 8.14333 67.5143 7.77C67.7276 7.39 67.8343 6.96667 67.8343 6.5C67.8343 6.03333 67.7276 5.61333 67.5143 5.24C67.301 4.86 67.0076 4.56667 66.6343 4.36C66.261 4.14667 65.841 4.04 65.3743 4.04C64.9076 4.04 64.4876 4.14667 64.1143 4.36C63.741 4.56667 63.4476 4.86 63.2343 5.24C63.021 5.61333 62.9143 6.03333 62.9143 6.5C62.9143 6.96667 63.021 7.39 63.2343 7.77C63.4476 8.14333 63.741 8.43667 64.1143 8.65C64.4876 8.85667 64.9076 8.96 65.3743 8.96ZM70.2916 3L71.5716 3L71.5716 7.97L75.3316 3L76.5416 3L76.5416 10L75.2616 10L75.2616 5.04L71.5016 10L70.2916 10L70.2916 3ZM73.4016 2.53C72.8016 2.53 72.3482 2.40667 72.0416 2.16C71.7416 1.91333 71.5882 1.55333 71.5816 1.08L72.4916 1.08C72.4982 1.32667 72.5782 1.51667 72.7316 1.65C72.8849 1.78333 73.1082 1.85 73.4016 1.85C73.6882 1.85 73.9116 1.78333 74.0716 1.65C74.2382 1.51667 74.3249 1.32667 74.3316 1.08L75.2316 1.08C75.2249 1.54667 75.0649 1.90667 74.7516 2.16C74.4449 2.40667 73.9949 2.53 73.4016 2.53ZM87.8179 8.9L87.8179 11.54L86.6179 11.54L86.6179 10L80.6779 10L80.6779 3L81.9579 3L81.9579 8.9L85.4879 8.9L85.4879 3L86.7779 3L86.7779 8.9L87.8179 8.9ZM93.9577 8.91L93.9577 10L88.7077 10L88.7077 3L93.8177 3L93.8177 4.09L90.0077 4.09L90.0077 5.91L93.3877 5.91L93.3877 6.98L90.0077 6.98L90.0077 8.91L93.9577 8.91ZM101.327 3L101.327 10L100.027 10L100.027 7L96.407 7L96.407 10L95.107 10L95.107 3L96.407 3L96.407 5.89L100.027 5.89L100.027 3L101.327 3ZM108.071 4.1L105.751 4.1L105.751 10L104.461 10L104.461 4.1L102.151 4.1L102.151 3L108.071 3L108.071 4.1ZM111.772 3C112.378 3 112.905 3.1 113.352 3.3C113.805 3.5 114.152 3.78667 114.392 4.16C114.632 4.53333 114.752 4.97667 114.752 5.49C114.752 5.99667 114.632 6.44 114.392 6.82C114.152 7.19333 113.805 7.48 113.352 7.68C112.905 7.88 112.378 7.98 111.772 7.98L110.192 7.98L110.192 10L108.892 10L108.892 3L111.772 3ZM111.712 6.88C112.278 6.88 112.708 6.76 113.002 6.52C113.295 6.28 113.442 5.93667 113.442 5.49C113.442 5.04333 113.295 4.7 113.002 4.46C112.708 4.22 112.278 4.1 111.712 4.1L110.192 4.1L110.192 6.88L111.712 6.88Z" fill="white"/>
<path d="M34.92 20.9L34.92 23.49L33.72 23.49L33.72 22L28.35 22L28.35 23.49L27.14 23.49L27.15 20.9L27.45 20.9C27.89 20.88 28.1967 20.5567 28.37 19.93C28.55 19.2967 28.66 18.3933 28.7 17.22L28.78 15L33.91 15L33.91 20.9L34.92 20.9ZM29.84 17.34C29.8067 18.2467 29.7333 19.0033 29.62 19.61C29.5067 20.21 29.3267 20.64 29.08 20.9L32.63 20.9L32.63 16.1L29.89 16.1L29.84 17.34ZM42.6941 20.91L42.6941 22L37.4441 22L37.4441 15L42.5541 15L42.5541 16.09L38.7441 16.09L38.7441 17.91L42.1241 17.91L42.1241 18.98L38.7441 18.98L38.7441 20.91L42.6941 20.91ZM51.6633 15L51.6633 22L50.3633 22L50.3633 19L46.7433 19L46.7433 22L45.4433 22L45.4433 15L46.7433 15L46.7433 17.89L50.3633 17.89L50.3633 15L51.6633 15ZM60.0069 16.1L57.6869 16.1L57.6869 22L56.3969 22L56.3969 16.1L54.0869 16.1L54.0869 15L60.0069 15L60.0069 16.1ZM66.7165 20.38L63.2165 20.38L62.5265 22L61.1865 22L64.3365 15L65.6165 15L68.7765 22L67.4165 22L66.7165 20.38ZM66.2865 19.36L64.9665 16.3L63.6565 19.36L66.2865 19.36ZM77.1788 15L77.1788 22L75.8988 22L75.8988 16.1L73.1388 16.1L73.0788 17.85C73.0454 18.83 72.9654 19.6267 72.8388 20.24C72.7121 20.8467 72.5088 21.31 72.2288 21.63C71.9488 21.9433 71.5621 22.1 71.0688 22.1C70.8954 22.1 70.6588 22.0667 70.3588 22L70.4488 20.87C70.5354 20.8967 70.6354 20.91 70.7488 20.91C71.1554 20.91 71.4421 20.67 71.6088 20.19C71.7821 19.7033 71.8888 18.94 71.9288 17.9L72.0288 15L77.1788 15ZM83.678 17.37C84.518 17.37 85.1613 17.56 85.608 17.94C86.0613 18.3133 86.288 18.87 86.288 19.61C86.288 20.3833 86.0413 20.9767 85.548 21.39C85.0546 21.7967 84.3613 22 83.468 22L80.458 22L80.458 15L81.738 15L81.738 17.37L83.678 17.37ZM83.408 21C83.9146 21 84.3046 20.8833 84.578 20.65C84.8513 20.4167 84.988 20.0767 84.988 19.63C84.988 18.7833 84.4613 18.36 83.408 18.36L81.738 18.36L81.738 21L83.408 21ZM95.1359 15L95.1359 22L93.8359 22L93.8359 19L90.2159 19L90.2159 22L88.9159 22L88.9159 15L90.2159 15L90.2159 17.89L93.8359 17.89L93.8359 15L95.1359 15ZM101.64 22.1C100.926 22.1 100.283 21.9467 99.7095 21.64C99.1362 21.3267 98.6862 20.8967 98.3595 20.35C98.0329 19.7967 97.8695 19.18 97.8695 18.5C97.8695 17.82 98.0329 17.2067 98.3595 16.66C98.6862 16.1067 99.1362 15.6767 99.7095 15.37C100.283 15.0567 100.926 14.9 101.64 14.9C102.353 14.9 102.996 15.0567 103.57 15.37C104.143 15.6767 104.593 16.1033 104.92 16.65C105.246 17.1967 105.41 17.8133 105.41 18.5C105.41 19.1867 105.246 19.8033 104.92 20.35C104.593 20.8967 104.143 21.3267 103.57 21.64C102.996 21.9467 102.353 22.1 101.64 22.1ZM101.64 20.96C102.106 20.96 102.526 20.8567 102.9 20.65C103.273 20.4367 103.566 20.1433 103.78 19.77C103.993 19.39 104.1 18.9667 104.1 18.5C104.1 18.0333 103.993 17.6133 103.78 17.24C103.566 16.86 103.273 16.5667 102.9 16.36C102.526 16.1467 102.106 16.04 101.64 16.04C101.173 16.04 100.753 16.1467 100.38 16.36C100.006 16.5667 99.7129 16.86 99.4995 17.24C99.2862 17.6133 99.1795 18.0333 99.1795 18.5C99.1795 18.9667 99.2862 19.39 99.4995 19.77C99.7129 20.1433 100.006 20.4367 100.38 20.65C100.753 20.8567 101.173 20.96 101.64 20.96ZM108.157 15L109.437 15L109.437 19.97L113.197 15L114.407 15L114.407 22L113.127 22L113.127 17.04L109.367 22L108.157 22L108.157 15ZM111.267 14.53C110.667 14.53 110.213 14.4067 109.907 14.16C109.607 13.9133 109.453 13.5533 109.447 13.08L110.357 13.08C110.363 13.3267 110.443 13.5167 110.597 13.65C110.75 13.7833 110.973 13.85 111.267 13.85C111.553 13.85 111.777 13.7833 111.937 13.65C112.103 13.5167 112.19 13.3267 112.197 13.08L113.097 13.08C113.09 13.5467 112.93 13.9067 112.617 14.16C112.31 14.4067 111.86 14.53 111.267 14.53Z" fill="white"/>
<path d="M27.99 27L29.27 27L29.27 31.97L33.03 27L34.24 27L34.24 34L32.96 34L32.96 29.04L29.2 34L27.99 34L27.99 27ZM42.6327 34L42.6227 29.36L40.3227 33.2L39.7427 33.2L37.4427 29.42L37.4427 34L36.2127 34L36.2127 27L37.2827 27L40.0527 31.63L42.7927 27L43.8527 27L43.8727 34L42.6327 34ZM52.0316 27L52.0316 34L50.7516 34L50.7516 28.1L47.1216 28.1L47.1216 34L45.8416 34L45.8416 27L52.0316 27ZM59.917 27L59.917 34L58.637 34L58.637 28.1L55.877 28.1L55.817 29.85C55.7837 30.83 55.7037 31.6267 55.577 32.24C55.4504 32.8467 55.247 33.31 54.967 33.63C54.687 33.9433 54.3004 34.1 53.807 34.1C53.6337 34.1 53.397 34.0667 53.097 34L53.187 32.87C53.2737 32.8967 53.3737 32.91 53.487 32.91C53.8937 32.91 54.1804 32.67 54.347 32.19C54.5204 31.7033 54.627 30.94 54.667 29.9L54.767 27L59.917 27ZM66.5263 32.38L63.0263 32.38L62.3363 34L60.9963 34L64.1463 27L65.4263 27L68.5863 34L67.2263 34L66.5263 32.38ZM66.0963 31.36L64.7763 28.3L63.4663 31.36L66.0963 31.36ZM75.8797 27L75.8797 34L74.5797 34L74.5797 31L70.9597 31L70.9597 34L69.6597 34L69.6597 27L70.9597 27L70.9597 29.89L74.5797 29.89L74.5797 27L75.8797 27ZM82.9233 28.1L80.6033 28.1L80.6033 34L79.3133 34L79.3133 28.1L77.0033 28.1L77.0033 27L82.9233 27L82.9233 28.1ZM88.3329 32.38L84.8329 32.38L84.1429 34L82.8029 34L85.9529 27L87.2329 27L90.3929 34L89.0329 34L88.3329 32.38ZM87.9029 31.36L86.5829 28.3L85.2729 31.36L87.9029 31.36ZM98.6163 32.9L98.6163 35.54L97.4163 35.54L97.4163 34L91.4763 34L91.4763 27L92.7563 27L92.7563 32.9L96.2863 32.9L96.2863 27L97.5763 27L97.5763 32.9L98.6163 32.9ZM99.8162 27L101.096 27L101.096 31.97L104.856 27L106.066 27L106.066 34L104.786 34L104.786 29.04L101.026 34L99.8162 34L99.8162 27ZM108.039 27L109.319 27L109.319 31.97L113.079 27L114.289 27L114.289 34L113.009 34L113.009 29.04L109.249 34L108.039 34L108.039 27Z" fill="white"/>
</svg>
