<svg width="17" height="18" viewBox="0 0 17 18" fill="none" xmlns="http://www.w3.org/2000/svg">
<path opacity="0.5" d="M15.9698 12.8878V15.2781C15.9707 15.5 15.9277 15.7197 15.8437 15.923C15.7598 16.1263 15.6366 16.3088 15.4821 16.4588C15.3277 16.6088 15.1453 16.723 14.9467 16.7941C14.7481 16.8652 14.5377 16.8916 14.3289 16.8717C12.0127 16.6053 9.78788 15.7675 7.83311 14.4256C6.01446 13.2023 4.47255 11.5701 3.3169 9.64499C2.04482 7.56639 1.25318 5.19983 1.00611 2.73703C0.9873 2.5167 1.01204 2.29463 1.07875 2.08497C1.14545 1.87532 1.25267 1.68266 1.39357 1.51927C1.53448 1.35588 1.70598 1.22533 1.89715 1.13594C2.08833 1.04656 2.29499 1.00029 2.50399 1.00008H4.76209C5.12738 0.996272 5.48152 1.1332 5.75849 1.38534C6.03546 1.63748 6.21637 1.98763 6.26749 2.37051C6.3628 3.13546 6.53956 3.88654 6.79439 4.60943C6.89566 4.89461 6.91757 5.20454 6.85754 5.50251C6.79751 5.80047 6.65804 6.07397 6.45567 6.2906L5.49974 7.3025C6.57125 9.29724 8.13153 10.9489 10.0159 12.0831L10.9719 11.0712C11.1765 10.857 11.4349 10.7093 11.7164 10.6458C11.9979 10.5823 12.2907 10.6055 12.5601 10.7127C13.243 10.9824 13.9525 11.1695 14.6752 11.2704C15.0408 11.325 15.3747 11.5199 15.6134 11.8182C15.8521 12.1164 15.979 12.4971 15.9698 12.8878Z" stroke="#4B4F4F" stroke-linecap="round" stroke-linejoin="round"/>
</svg>
