<svg width="149" height="46" viewBox="0 0 149 46" fill="none" xmlns="http://www.w3.org/2000/svg">
<path d="M4.70402 24.1887C3.59432 22.9597 2.21797 20.2197 1.29923 17.8309C0.663862 16.183 0.285456 14.6555 0.208015 14.0926C0.017051 12.7152 -0.385997 8.88843 0.962188 6.28633C2.12117 4.04593 3.98856 3.92624 4.79026 4.02251C6.20356 4.32002 6.9771 5.11106 7.39774 5.47448C7.81839 5.83791 10.7612 8.35586 11.3578 8.68373C12.0442 9.06277 13.5878 9.91885 15.0064 10.3317C15.4703 10.4607 15.942 10.5603 16.4188 10.6301C17.0155 10.7263 17.6177 10.7859 18.2219 10.8088C17.1886 11.0747 16.121 11.1884 15.0539 11.1462C14.4655 11.121 13.8806 11.0441 13.3062 10.9163C12.8469 10.813 12.3962 10.6756 11.958 10.5052C11.2989 10.245 8.99937 8.81036 6.2634 8.36454C5.76524 8.28495 5.2622 8.23859 4.7577 8.22576C4.17073 8.21795 3.70168 8.28474 3.17367 8.69847C2.38165 9.30563 2.09653 10.2597 1.98477 11.5989C1.75332 14.358 3.82312 22.5043 4.70402 24.1887Z" fill="white"/>
<path d="M14.7022 9.55097C14.7022 9.55097 18.8805 8.14671 20.96 8.78682C22.0521 9.12336 22.4648 9.49459 22.7702 10.0723C23.1539 10.7974 23.0122 11.9111 22.6769 12.9727C22.258 14.3007 21.5029 15.5592 21.187 16.1403C20.5509 17.2669 19.8306 18.3451 19.0319 19.3661C17.7529 21.0013 16.3465 22.5357 14.8254 23.9553C12.6368 25.9598 11.2569 27.0735 11.2543 27.4195C11.2516 27.7656 11.2543 27.7821 11.6512 28.0033C12.1176 28.2635 14.3414 29.0944 14.278 30.634C14.2402 31.5586 13.4094 32.0513 11.9996 32.6627C11.5596 32.8544 9.94305 33.2621 9.92897 33.5206C9.91489 33.779 10.1331 33.9022 10.6435 34.1537C11.154 34.4053 12.2601 34.8815 12.4247 35.421C12.5893 35.9605 12.6491 36.0134 12.0234 36.6509C11.3977 37.2884 9.95449 37.827 9.7468 38.0205C9.53912 38.2139 9.3948 38.252 9.54264 38.4125C9.69048 38.573 10.7659 39.3761 11.1953 39.7014C11.6248 40.0267 11.7233 40.3363 11.6626 40.5193C11.5042 41.0137 10.281 41.6469 9.89201 41.8204C9.50304 41.9938 6.93955 43 6.93955 43C7.88293 42.4258 9.24344 41.5567 9.43352 41.352C9.64032 41.1291 9.99497 40.7873 9.89377 40.3155C9.83305 40.0284 9.36576 39.9191 8.97415 39.8202C8.58254 39.7214 7.40684 39.4655 7.18156 39.2218C6.95627 38.978 6.76883 38.9147 6.93955 38.4142C7.14196 37.8201 8.32118 37.4098 9.276 37.1999C9.72656 37.1002 10.4552 36.8009 10.7025 36.48C10.9498 36.1591 10.8028 35.9596 10.6735 35.7219C10.5177 35.434 9.66408 35.2293 9.408 35.1616C9.15191 35.094 7.79229 34.6412 7.5186 34.2578C7.23172 33.8562 7.19124 33.3376 7.4482 33.027C7.70517 32.7165 8.10733 32.2551 9.58312 31.8344C10.3672 31.6106 12.4608 31.1917 12.5039 30.6496C12.5567 30.0025 11.9336 29.836 11.5253 29.6599C10.8512 29.3694 8.59046 28.6252 8.20854 27.8497C7.82661 27.0743 9.08855 26.05 10.0064 25.1418C10.9243 24.2337 12.3314 23.0602 13.1965 22.3732C14.0615 21.6863 17.9406 18.0078 18.9588 16.62C19.977 15.2322 20.5076 14.2694 20.7664 13.5842C20.9881 12.9987 21.2733 12.0629 21.2891 11.1625C21.2997 10.5658 21.2645 10.1399 21.0251 10.0037C20.7232 9.83026 20.4584 9.62903 20.124 9.57005C19.7449 9.49047 19.361 9.43513 18.9747 9.40439C18.7018 9.38877 17.5402 9.34541 16.7746 9.38964C16.4569 9.41046 14.8843 9.5102 14.7022 9.55097Z" fill="white"/>
<path d="M38.628 9.165L36.938 9.165L36.938 13L35.274 13L35.274 3.9L36.938 3.9L36.938 7.709L38.68 7.709L41.293 3.9L43.087 3.9L39.98 8.307L43.204 13L41.293 13L38.628 9.165ZM47.7051 3.9C48.4938 3.9 49.1785 4.03 49.7591 4.29C50.3485 4.55 50.7991 4.92267 51.1111 5.408C51.4231 5.89333 51.5791 6.46967 51.5791 7.137C51.5791 7.79567 51.4231 8.372 51.1111 8.866C50.7991 9.35133 50.3485 9.724 49.7591 9.984C49.1785 10.244 48.4938 10.374 47.7051 10.374L45.6511 10.374L45.6511 13L43.9611 13L43.9611 3.9L47.7051 3.9ZM47.6271 8.944C48.3638 8.944 48.9228 8.788 49.3041 8.476C49.6855 8.164 49.8761 7.71767 49.8761 7.137C49.8761 6.55633 49.6855 6.11 49.3041 5.798C48.9228 5.486 48.3638 5.33 47.6271 5.33L45.6511 5.33L45.6511 8.944L47.6271 8.944ZM58.3629 10.894L53.8129 10.894L52.9159 13L51.1739 13L55.2689 3.9L56.9329 3.9L61.0409 13L59.2729 13L58.3629 10.894ZM57.8039 9.568L56.0879 5.59L54.3849 9.568L57.8039 9.568ZM68.8714 11.583L68.8714 13L62.0464 13L62.0464 3.9L68.6894 3.9L68.6894 5.317L63.7364 5.317L63.7364 7.683L68.1304 7.683L68.1304 9.074L63.7364 9.074L63.7364 11.583L68.8714 11.583ZM76.3584 8.268C76.939 8.424 77.381 8.69267 77.6844 9.074C77.9877 9.44667 78.1394 9.91467 78.1394 10.478C78.1394 11.2753 77.8447 11.895 77.2554 12.337C76.666 12.779 75.8124 13 74.6944 13L70.3784 13L70.3784 3.9L74.4474 3.9C75.47 3.9 76.2674 4.10367 76.8394 4.511C77.4114 4.91833 77.6974 5.49467 77.6974 6.24C77.6974 6.71667 77.5804 7.12833 77.3464 7.475C77.121 7.82167 76.7917 8.086 76.3584 8.268ZM72.0424 7.787L74.3044 7.787C74.8504 7.787 75.2664 7.67867 75.5524 7.462C75.8384 7.24533 75.9814 6.92467 75.9814 6.5C75.9814 6.07533 75.8384 5.75467 75.5524 5.538C75.2664 5.31267 74.8504 5.2 74.3044 5.2L72.0424 5.2L72.0424 7.787ZM74.6424 11.7C75.8384 11.7 76.4364 11.2493 76.4364 10.348C76.4364 9.464 75.8384 9.022 74.6424 9.022L72.0424 9.022L72.0424 11.7L74.6424 11.7ZM83.8866 13.13C82.9593 13.13 82.1229 12.9307 81.3776 12.532C80.6323 12.1247 80.0473 11.5657 79.6226 10.855C79.1979 10.1357 78.9856 9.334 78.9856 8.45C78.9856 7.566 79.1979 6.76867 79.6226 6.058C80.0473 5.33867 80.6323 4.77967 81.3776 4.381C82.1229 3.97367 82.9593 3.77 83.8866 3.77C84.8139 3.77 85.6503 3.97367 86.3956 4.381C87.1409 4.77967 87.7259 5.33433 88.1506 6.045C88.5753 6.75567 88.7876 7.55733 88.7876 8.45C88.7876 9.34267 88.5753 10.1443 88.1506 10.855C87.7259 11.5657 87.1409 12.1247 86.3956 12.532C85.6503 12.9307 84.8139 13.13 83.8866 13.13ZM83.8866 11.648C84.4933 11.648 85.0393 11.5137 85.5246 11.245C86.0099 10.9677 86.3913 10.5863 86.6686 10.101C86.9459 9.607 87.0846 9.05667 87.0846 8.45C87.0846 7.84333 86.9459 7.29733 86.6686 6.812C86.3913 6.318 86.0099 5.93667 85.5246 5.668C85.0393 5.39067 84.4933 5.252 83.8866 5.252C83.2799 5.252 82.7339 5.39067 82.2486 5.668C81.7633 5.93667 81.3819 6.318 81.1046 6.812C80.8273 7.29733 80.6886 7.84333 80.6886 8.45C80.6886 9.05667 80.8273 9.607 81.1046 10.101C81.3819 10.5863 81.7633 10.9677 82.2486 11.245C82.7339 11.5137 83.2799 11.648 83.8866 11.648ZM90.279 3.9L91.943 3.9L91.943 10.361L96.831 3.9L98.404 3.9L98.404 13L96.74 13L96.74 6.552L91.852 13L90.279 13L90.279 3.9ZM94.322 3.289C93.542 3.289 92.9527 3.12867 92.554 2.808C92.164 2.48733 91.9647 2.01933 91.956 1.404L93.139 1.404C93.1477 1.72467 93.2517 1.97167 93.451 2.145C93.6504 2.31833 93.9407 2.405 94.322 2.405C94.6947 2.405 94.985 2.31833 95.193 2.145C95.4097 1.97167 95.5224 1.72467 95.531 1.404L96.701 1.404C96.6924 2.01067 96.4844 2.47867 96.077 2.808C95.6784 3.12867 95.0934 3.289 94.322 3.289ZM113.063 11.57L113.063 15.002L111.503 15.002L111.503 13L103.781 13L103.781 3.9L105.445 3.9L105.445 11.57L110.034 11.57L110.034 3.9L111.711 3.9L111.711 11.57L113.063 11.57ZM121.045 11.583L121.045 13L114.22 13L114.22 3.9L120.863 3.9L120.863 5.317L115.91 5.317L115.91 7.683L120.304 7.683L120.304 9.074L115.91 9.074L115.91 11.583L121.045 11.583ZM130.625 3.9L130.625 13L128.935 13L128.935 9.1L124.229 9.1L124.229 13L122.539 13L122.539 3.9L124.229 3.9L124.229 7.657L128.935 7.657L128.935 3.9L130.625 3.9ZM139.392 5.33L136.376 5.33L136.376 13L134.699 13L134.699 5.33L131.696 5.33L131.696 3.9L139.392 3.9L139.392 5.33ZM144.203 3.9C144.992 3.9 145.677 4.03 146.257 4.29C146.847 4.55 147.297 4.92267 147.609 5.408C147.921 5.89333 148.077 6.46967 148.077 7.137C148.077 7.79567 147.921 8.372 147.609 8.866C147.297 9.35133 146.847 9.724 146.257 9.984C145.677 10.244 144.992 10.374 144.203 10.374L142.149 10.374L142.149 13L140.459 13L140.459 3.9L144.203 3.9ZM144.125 8.944C144.862 8.944 145.421 8.788 145.802 8.476C146.184 8.164 146.374 7.71767 146.374 7.137C146.374 6.55633 146.184 6.11 145.802 5.798C145.421 5.486 144.862 5.33 144.125 5.33L142.149 5.33L142.149 8.944L144.125 8.944Z" fill="white"/>
<path d="M44.296 26.57L44.296 29.937L42.736 29.937L42.736 28L35.755 28L35.755 29.937L34.182 29.937L34.195 26.57L34.585 26.57C35.157 26.544 35.5557 26.1237 35.781 25.309C36.015 24.4857 36.158 23.3113 36.21 21.786L36.314 18.9L42.983 18.9L42.983 26.57L44.296 26.57ZM37.692 21.942C37.6487 23.1207 37.5533 24.1043 37.406 24.893C37.2587 25.673 37.0247 26.232 36.704 26.57L41.319 26.57L41.319 20.33L37.757 20.33L37.692 21.942ZM54.4023 26.583L54.4023 28L47.5773 28L47.5773 18.9L54.2203 18.9L54.2203 20.317L49.2673 20.317L49.2673 22.683L53.6613 22.683L53.6613 24.074L49.2673 24.074L49.2673 26.583L54.4023 26.583ZM66.0623 18.9L66.0623 28L64.3723 28L64.3723 24.1L59.6663 24.1L59.6663 28L57.9763 28L57.9763 18.9L59.6663 18.9L59.6663 22.657L64.3723 22.657L64.3723 18.9L66.0623 18.9ZM76.9089 20.33L73.8929 20.33L73.8929 28L72.2159 28L72.2159 20.33L69.2129 20.33L69.2129 18.9L76.9089 18.9L76.9089 20.33ZM85.6314 25.894L81.0814 25.894L80.1844 28L78.4424 28L82.5374 18.9L84.2014 18.9L88.3094 28L86.5414 28L85.6314 25.894ZM85.0724 24.568L83.3564 20.59L81.6534 24.568L85.0724 24.568ZM99.2324 18.9L99.2324 28L97.5684 28L97.5684 20.33L93.9804 20.33L93.9024 22.605C93.859 23.879 93.755 24.9147 93.5904 25.712C93.4257 26.5007 93.1614 27.103 92.7974 27.519C92.4334 27.9263 91.9307 28.13 91.2894 28.13C91.064 28.13 90.7564 28.0867 90.3664 28L90.4834 26.531C90.596 26.5657 90.726 26.583 90.8734 26.583C91.402 26.583 91.7747 26.271 91.9914 25.647C92.2167 25.0143 92.3554 24.022 92.4074 22.67L92.5374 18.9L99.2324 18.9ZM107.681 21.981C108.773 21.981 109.61 22.228 110.19 22.722C110.78 23.2073 111.074 23.931 111.074 24.893C111.074 25.8983 110.754 26.6697 110.112 27.207C109.471 27.7357 108.57 28 107.408 28L103.495 28L103.495 18.9L105.159 18.9L105.159 21.981L107.681 21.981ZM107.33 26.7C107.989 26.7 108.496 26.5483 108.851 26.245C109.207 25.9417 109.384 25.4997 109.384 24.919C109.384 23.8183 108.7 23.268 107.33 23.268L105.159 23.268L105.159 26.7L107.33 26.7ZM122.577 18.9L122.577 28L120.887 28L120.887 24.1L116.181 24.1L116.181 28L114.491 28L114.491 18.9L116.181 18.9L116.181 22.657L120.887 22.657L120.887 18.9L122.577 18.9ZM131.031 28.13C130.104 28.13 129.268 27.9307 128.522 27.532C127.777 27.1247 127.192 26.5657 126.767 25.855C126.343 25.1357 126.13 24.334 126.13 23.45C126.13 22.566 126.343 21.7687 126.767 21.058C127.192 20.3387 127.777 19.7797 128.522 19.381C129.268 18.9737 130.104 18.77 131.031 18.77C131.959 18.77 132.795 18.9737 133.54 19.381C134.286 19.7797 134.871 20.3343 135.295 21.045C135.72 21.7557 135.932 22.5573 135.932 23.45C135.932 24.3427 135.72 25.1443 135.295 25.855C134.871 26.5657 134.286 27.1247 133.54 27.532C132.795 27.9307 131.959 28.13 131.031 28.13ZM131.031 26.648C131.638 26.648 132.184 26.5137 132.669 26.245C133.155 25.9677 133.536 25.5863 133.813 25.101C134.091 24.607 134.229 24.0567 134.229 23.45C134.229 22.8433 134.091 22.2973 133.813 21.812C133.536 21.318 133.155 20.9367 132.669 20.668C132.184 20.3907 131.638 20.252 131.031 20.252C130.425 20.252 129.879 20.3907 129.393 20.668C128.908 20.9367 128.527 21.318 128.249 21.812C127.972 22.2973 127.833 22.8433 127.833 23.45C127.833 24.0567 127.972 24.607 128.249 25.101C128.527 25.5863 128.908 25.9677 129.393 26.245C129.879 26.5137 130.425 26.648 131.031 26.648ZM139.504 18.9L141.168 18.9L141.168 25.361L146.056 18.9L147.629 18.9L147.629 28L145.965 28L145.965 21.552L141.077 28L139.504 28L139.504 18.9ZM143.547 18.289C142.767 18.289 142.178 18.1287 141.779 17.808C141.389 17.4873 141.19 17.0193 141.181 16.404L142.364 16.404C142.373 16.7247 142.477 16.9717 142.676 17.145C142.875 17.3183 143.166 17.405 143.547 17.405C143.92 17.405 144.21 17.3183 144.418 17.145C144.635 16.9717 144.747 16.7247 144.756 16.404L145.926 16.404C145.917 17.0107 145.709 17.4787 145.302 17.808C144.903 18.1287 144.318 18.289 143.547 18.289Z" fill="white"/>
<path d="M35.287 33.9L36.951 33.9L36.951 40.361L41.839 33.9L43.412 33.9L43.412 43L41.748 43L41.748 36.552L36.86 43L35.287 43L35.287 33.9ZM54.3225 43L54.3095 36.968L51.3195 41.96L50.5655 41.96L47.5755 37.046L47.5755 43L45.9765 43L45.9765 33.9L47.3675 33.9L50.9685 39.919L54.5305 33.9L55.9085 33.9L55.9345 43L54.3225 43ZM66.541 33.9L66.541 43L64.877 43L64.877 35.33L60.158 35.33L60.158 43L58.494 43L58.494 33.9L66.541 33.9ZM76.7921 33.9L76.7921 43L75.1281 43L75.1281 35.33L71.5401 35.33L71.4621 37.605C71.4188 38.879 71.3148 39.9147 71.1501 40.712C70.9855 41.5007 70.7211 42.103 70.3571 42.519C69.9931 42.9263 69.4905 43.13 68.8491 43.13C68.6238 43.13 68.3161 43.0867 67.9261 43L68.0431 41.531C68.1558 41.5657 68.2858 41.583 68.4331 41.583C68.9618 41.583 69.3345 41.271 69.5511 40.647C69.7765 40.0143 69.9151 39.022 69.9671 37.67L70.0971 33.9L76.7921 33.9ZM85.3841 40.894L80.8341 40.894L79.9371 43L78.1951 43L82.2901 33.9L83.9541 33.9L88.0621 43L86.2941 43L85.3841 40.894ZM84.8251 39.568L83.1091 35.59L81.4061 39.568L84.8251 39.568ZM97.5436 33.9L97.5436 43L95.8536 43L95.8536 39.1L91.1476 39.1L91.1476 43L89.4576 43L89.4576 33.9L91.1476 33.9L91.1476 37.657L95.8536 37.657L95.8536 33.9L97.5436 33.9ZM106.7 35.33L103.684 35.33L103.684 43L102.007 43L102.007 35.33L99.0043 35.33L99.0043 33.9L106.7 33.9L106.7 35.33ZM113.733 40.894L109.183 40.894L108.286 43L106.544 43L110.639 33.9L112.303 33.9L116.411 43L114.643 43L113.733 40.894ZM113.174 39.568L111.458 35.59L109.755 39.568L113.174 39.568ZM127.101 41.57L127.101 45.002L125.541 45.002L125.541 43L117.819 43L117.819 33.9L119.483 33.9L119.483 41.57L124.072 41.57L124.072 33.9L125.749 33.9L125.749 41.57L127.101 41.57ZM128.661 33.9L130.325 33.9L130.325 40.361L135.213 33.9L136.786 33.9L136.786 43L135.122 43L135.122 36.552L130.234 43L128.661 43L128.661 33.9ZM139.35 33.9L141.014 33.9L141.014 40.361L145.902 33.9L147.475 33.9L147.475 43L145.811 43L145.811 36.552L140.923 43L139.35 43L139.35 33.9Z" fill="white"/>
</svg>
